<svg xmlns="http://www.w3.org/2000/svg" width="420.0mm" height="297.0mm" viewBox="0 0 420.0 297.0">
<style>
  svg { background-color: #ffffff; }
</style>
<defs><marker id="arrow" markerWidth="8" markerHeight="6" refX="8" refY="3" orient="auto-start-reverse" markerUnits="userSpaceOnUse"><path d="M0,0 L0,6 L8,3 Z" fill="grey" /></marker><marker id="arrow-end" markerWidth="8" markerHeight="6" refX="8" refY="3" orient="auto" markerUnits="userSpaceOnUse"><path d="M0,0 L0,6 L8,3 Z" fill="grey" /></marker><marker id="scissor" markerWidth="26" markerHeight="14" refX="13" refY="7" orient="auto" markerUnits="userSpaceOnUse"><path transform="translate(13,7) scale(-1,1)" style="marker-start:none" fill="black" d="M 9.0898857,-3.6061018 C 8.1198849,-4.7769976 6.3697607,-4.7358294 5.0623558,-4.2327734 L -3.1500488,-1.1548705 C -5.5383421,-2.4615840 -7.8983361,-2.0874077 -7.8983361,-2.7236578 C -7.8983361,-3.2209742 -7.4416699,-3.1119800 -7.5100293,-4.4068519 C -7.5756648,-5.6501286 -8.8736064,-6.5699315 -10.100428,-6.4884954 C -11.327699,-6.4958500 -12.599867,-5.5553341 -12.610769,-4.2584343 C -12.702194,-2.9520479 -11.603560,-1.7387447 -10.304005,-1.6532027 C -8.7816644,-1.4265411 -6.0857470,-2.3487593 -4.8210600,-0.082342643 C -5.7633447,1.6559151 -7.4350844,1.6607341 -8.9465707,1.5737277 C -10.201445,1.5014928 -11.708664,1.8611256 -12.307219,3.0945882 C -12.885586,4.2766744 -12.318421,5.9591904 -10.990470,6.3210002 C -9.6502788,6.8128279 -7.8098011,6.1912892 -7.4910978,4.6502760 C -7.2454393,3.4624530 -8.0864637,2.9043186 -7.7636052,2.4731223 C -7.5199917,2.1477623 -5.9728246,2.3362771 -3.2164999,1.0982979 L 5.6763468,4.2330688 C 6.8000164,4.5467672 8.1730685,4.5362646 9.1684433,3.4313614 L -0.051640930,-0.053722219 L 9.0898857,-3.6061018 z M -9.2179159,-5.5066058 C -7.9233569,-4.7838060 -8.0290767,-2.8230356 -9.3743431,-2.4433169 C -10.590861,-2.0196559 -12.145370,-3.2022863 -11.757521,-4.5207817 C -11.530373,-5.6026336 -10.104134,-6.0014137 -9.2179159,-5.5066058 z M -9.1616516,2.5107591 C -7.8108215,3.0096239 -8.0402087,5.2951947 -9.4138723,5.6023681 C -10.324932,5.9187072 -11.627422,5.4635705 -11.719569,4.3902287 C -11.897178,3.0851737 -10.363484,1.9060805 -9.1616516,2.5107591 z" /></marker><marker id="distance-start" markerWidth="15" markerHeight="10" refX="0" refY="5" orient="auto-start-reverse" markerUnits="userSpaceOnUse"><path d="M 13,4 L 0,5 L 13,6" fill="none" stroke="black" stroke-width="1" /><path d="M 0,1 L 0,9" fill="none" stroke="black" stroke-width="1" /></marker><marker id="distance-end" markerWidth="15" markerHeight="10" refX="13" refY="5" orient="auto" markerUnits="userSpaceOnUse"><path d="M 0,4 L 13,5 L 0,6" fill="none" stroke="black" stroke-width="1" /><path d="M 13,1 L 13,9" fill="none" stroke="black" stroke-width="1" /></marker><marker id="dot" markerWidth="6" markerHeight="6" refX="3" refY="3" orient="auto" markerUnits="userSpaceOnUse"><circle cx="3" cy="3" r="2" fill="black" stroke="black" stroke-width="0.5" /></marker><marker id="stop" markerWidth="4" markerHeight="12" refX="2" refY="6" orient="auto" markerUnits="userSpaceOnUse"><path d="M 2,0 L 2,12" fill="none" stroke="black" stroke-width="1.5" /></marker></defs>
<text x="10" y="10" font-size="5.0" fill="#000000">Toy Rectangle with Dart</text>
<line x1="25.0" y1="25.0" x2="25.0" y2="205.0" style="stroke:#000000;fill:none" stroke-width="0.5" stroke-linejoin="miter" stroke-miterlimit="4.0" opacity="1.0" />
<line x1="25.0" y1="205.0" x2="145.0" y2="205.0" style="stroke:#000000;fill:none" stroke-width="0.5" stroke-linejoin="miter" stroke-miterlimit="4.0" opacity="1.0" />
<line x1="145.0" y1="205.0" x2="145.0" y2="104.0" style="stroke:#000000;fill:none" stroke-width="0.5" stroke-linejoin="miter" stroke-miterlimit="4.0" opacity="1.0" />
<line x1="145.0" y1="76.0" x2="145.0" y2="25.0" style="stroke:#000000;fill:none" stroke-width="0.5" stroke-linejoin="miter" stroke-miterlimit="4.0" opacity="1.0" />
<line x1="145.0" y1="25.0" x2="25.0" y2="25.0" style="stroke:#000000;fill:none" stroke-width="0.5" stroke-linejoin="miter" stroke-miterlimit="4.0" opacity="1.0" />
<line x1="70.0" y1="90.0" x2="145.0" y2="104.0" style="stroke:#000000;fill:none" stroke-width="0.5" stroke-linejoin="miter" stroke-miterlimit="4.0" opacity="1.0" stroke-dasharray="5.0,2.0" stroke-dashoffset="0.0" />
<line x1="70.0" y1="90.0" x2="145.0" y2="76.0" style="stroke:#000000;fill:none" stroke-width="0.5" stroke-linejoin="miter" stroke-miterlimit="4.0" opacity="1.0" stroke-dasharray="5.0,2.0" stroke-dashoffset="0.0" />
<line x1="145.0" y1="90.0" x2="70.0" y2="90.0" style="stroke:#000000;fill:none" stroke-width="0.5" stroke-linejoin="miter" stroke-miterlimit="4.0" opacity="1.0" stroke-dasharray="10.0,2.0,2.0,2.0" stroke-dashoffset="0.0" />
<line x1="145.0" y1="104.0" x2="150.4153619451096" y2="90.0" style="stroke:#000000;fill:none" stroke-width="0.5" stroke-linejoin="miter" stroke-miterlimit="4.0" opacity="1.0" />
<line x1="145.0" y1="76.0" x2="150.4153619451096" y2="90.0" style="stroke:#000000;fill:none" stroke-width="0.5" stroke-linejoin="miter" stroke-miterlimit="4.0" opacity="1.0" />
<clipPath id="cc_7000_9000_500"><circle cx="70.0" cy="90.0" r="5.0" /></clipPath>
<circle cx="70.0" cy="90.0" r="5.0" clip-path="url(#cc_7000_9000_500)" style="stroke:#555555;fill:none" stroke-width="0.2" stroke-linejoin="miter" stroke-miterlimit="4.0" opacity="1.0" />
<clipPath id="cc_7000_9000_50"><circle cx="70.0" cy="90.0" r="0.5" /></clipPath>
<circle cx="70.0" cy="90.0" r="0.5" clip-path="url(#cc_7000_9000_50)" style="stroke:#555555;fill:none" stroke-width="0.2" stroke-linejoin="miter" stroke-miterlimit="4.0" opacity="1.0" />
<text x="70.0" y="76.0" font-size="6.0" font-weight="bold" fill="#000000" text-anchor="middle" dominant-baseline="middle">Toy Dart</text>
<polygon points="161.13439831982302,90.4 161.13439831982302,89.6 153.13439831982302,90.0" style="stroke:#000000;fill:#000000" stroke-width="0.5" opacity="1.0" />
<polygon points="153.9361086061913,105.83553543979426 155.37915962835243,102.104904963931 147.19637316554537,101.08411815754035" style="stroke:#000000;fill:#000000" stroke-width="0.5" opacity="1.0" />
<polygon points="153.9311900641128,74.18959006017646 155.3742410862739,77.92022053603971 147.19145462346685,78.94100734243037" style="stroke:#000000;fill:#000000" stroke-width="0.5" opacity="1.0" />
<path d="M 154.66328809482906,74.19618622229856 L 155.0,15.0 L 15.0,15.0 L 15.0,215.0 L 155.0,215.0 L 154.66328809482906,105.80381377770144 L 161.18883777916312,90.13295262291264 L 154.66328809482906,74.19618622229856 Z" style="stroke:#000000;fill:none" stroke-width="0.5" stroke-linejoin="miter" stroke-miterlimit="4.0" opacity="1.0" />
<line x1="175.4153619451096" y1="25.0" x2="175.4153619451096" y2="205.0" style="stroke:#000000;fill:none" stroke-width="0.5" stroke-linejoin="miter" stroke-miterlimit="4.0" opacity="1.0" />
<line x1="175.4153619451096" y1="205.0" x2="220.4153619451096" y2="205.0" style="stroke:#000000;fill:none" stroke-width="0.5" stroke-linejoin="miter" stroke-miterlimit="4.0" opacity="1.0" />
<line x1="261.9030788322424" y1="197.25562618106855" x2="331.8524002546784" y2="170.19841951554716" style="stroke:#000000;fill:none" stroke-width="0.5" stroke-linejoin="miter" stroke-miterlimit="4.0" opacity="1.0" />
<line x1="331.8524002546784" y1="170.19841951554716" x2="295.41536194510957" y2="76.0" style="stroke:#000000;fill:none" stroke-width="0.5" stroke-linejoin="miter" stroke-miterlimit="4.0" opacity="1.0" />
<line x1="295.41536194510957" y1="76.0" x2="295.41536194510957" y2="25.0" style="stroke:#000000;fill:none" stroke-width="0.5" stroke-linejoin="miter" stroke-miterlimit="4.0" opacity="1.0" />
<line x1="295.41536194510957" y1="25.0" x2="175.4153619451096" y2="25.0" style="stroke:#000000;fill:none" stroke-width="0.5" stroke-linejoin="miter" stroke-miterlimit="4.0" opacity="1.0" />
<line x1="220.4153619451096" y1="90.0" x2="220.4153619451096" y2="205.0" style="stroke:#000000;fill:none" stroke-width="0.5" stroke-linejoin="miter" stroke-miterlimit="4.0" opacity="1.0" stroke-dasharray="5.0,2.0" stroke-dashoffset="0.0" />
<line x1="220.4153619451096" y1="90.0" x2="261.9030788322424" y2="197.25562618106855" style="stroke:#000000;fill:none" stroke-width="0.5" stroke-linejoin="miter" stroke-miterlimit="4.0" opacity="1.0" stroke-dasharray="5.0,2.0" stroke-dashoffset="0.0" />
<line x1="241.15922038867598" y1="201.1278130905343" x2="220.4153619451096" y2="90.0" style="stroke:#000000;fill:none" stroke-width="0.5" stroke-linejoin="miter" stroke-miterlimit="4.0" opacity="1.0" stroke-dasharray="10.0,2.0,2.0,2.0" stroke-dashoffset="0.0" />
<line x1="220.4153619451096" y1="205.0" x2="242.65702707680973" y2="209.1517774912507" style="stroke:#000000;fill:none" stroke-width="0.5" stroke-linejoin="miter" stroke-miterlimit="4.0" opacity="1.0" />
<line x1="261.9030788322424" y1="197.25562618106855" x2="242.65702707680973" y2="209.1517774912507" style="stroke:#000000;fill:none" stroke-width="0.5" stroke-linejoin="miter" stroke-miterlimit="4.0" opacity="1.0" />
<clipPath id="cc_22042_9000_500"><circle cx="220.4153619451096" cy="90.0" r="5.0" /></clipPath>
<circle cx="220.4153619451096" cy="90.0" r="5.0" clip-path="url(#cc_22042_9000_500)" style="stroke:#555555;fill:none" stroke-width="0.2" stroke-linejoin="miter" stroke-miterlimit="4.0" opacity="1.0" />
<clipPath id="cc_22042_9000_50"><circle cx="220.4153619451096" cy="90.0" r="0.5" /></clipPath>
<circle cx="220.4153619451096" cy="90.0" r="0.5" clip-path="url(#cc_22042_9000_50)" style="stroke:#555555;fill:none" stroke-width="0.2" stroke-linejoin="miter" stroke-miterlimit="4.0" opacity="1.0" />
<text x="220.4153619451096" y="76.0" font-size="6.0" font-weight="bold" fill="#000000" text-anchor="middle" dominant-baseline="middle">Toy Dart</text>
<polygon points="244.23126925550827,219.76508854116003 245.01768545452063,219.61829085067774 243.15650045019134,211.8275277057952" style="stroke:#000000;fill:#000000" stroke-width="0.5" opacity="1.0" />
<polygon points="218.46488387881158,214.54664231844467 222.3969648738734,215.28063077085622 221.8989012811656,207.04947455452677" style="stroke:#000000;fill:#000000" stroke-width="0.5" opacity="1.0" />
<polygon points="267.1716487463325,205.4542046978011 263.76915914452417,207.55731299496173 261.26418735110707,199.70077964276467" style="stroke:#000000;fill:#000000" stroke-width="0.5" opacity="1.0" />
<path d="M 266.33577798139464,206.17202627815806 L 344.786603972213,175.9173681199377 L 305.0786500399387,74.19618622229856 L 305.48380462959926,15.0 L 165.4153619451096,15.0 L 165.4153619451096,215.0 L 219.49787637959517,214.91510124382728 L 244.60545171771025,219.7035369922687 L 266.33577798139464,206.17202627815806 Z" style="stroke:#000000;fill:none" stroke-width="0.5" stroke-linejoin="miter" stroke-miterlimit="4.0" opacity="1.0" />
</svg>
